<svg width="172" height="65" viewBox="0 0 172 65" xmlns="http://www.w3.org/2000/svg" xmlns:xlink="http://www.w3.org/1999/xlink">
    <defs>
        <path id="a" d="M0 0h173.23v29.188H0V0z"/>
    </defs>
    <g fill="none" fill-rule="evenodd">
        <g transform="translate(-1 13)">
            <mask id="b" fill="#fff">
                <use xlink:href="#a"/>
            </mask>
            <path d="M25.528 29.012c-2.715.112-5.442.144-8.17.155l-8.174.02c-1.346.037-3.764-.88-6.27-1.468-.667-.29-1.278-.605-1.81-.935.7-.02 1.396-.04 2.09-.057-.816.02-1.607-.05-2.393-.148-.2-.14-.393-.283-.562-.428 1.048-.03 2.1-.058 3.146-.086-.85.024-2.447-.128-3.37-.122-.004-.006-.012-.01-.014-.017 1.842-.234 4.324.113 6.07.065-5.065-.954-2.058-2.13 3.426-2.717-.894.024-2.682.074-2.622-.147.308-1.1 4.408.1 5.365-.147.24-.88-5.303-.073-5.95-.93 1.784-.05 3.692-.537 5.417-.366 1.198-1.126-4.463.123-4.282-.54l4.462-.12c-2.495-.587-.403-1.74-2.003-2.352-2.247-1.47-5.495-2.473.14-3.72 1.008-.464 3.67-.537 6.335-.61-.993-.33-2.134-.658-3.364-.98 2.587-.758 5.18-1.538 7.733-2.2 5.585-1.22 13.644-1.93 20.296-2.227l1.105-.1c6.12-.23 21.03-1.327 35.352-2.657 14.3-1.316 28.02-2.676 31.533-3.438 10.447-.627 20.63-1.578 30.884-2.057l7.676-.402 3.845-.174 3.865-.06c5.158-.063 10.338-.067 15.564.026-1.557.65 3.643 1.325 2.085 1.973-.988.412-5.3-.342-8.107-.02-7.16 1.293-9.18 3.582-9.762 5.548-.194.656-4.222.62-6.898.726 2.013 2.245-7.72 3.796-7.02 6.074-4 .118-9.25-.144-13.338.37-2.755.45-5.6 1.232-8.438 2.012-3.37.593-6.676 1.173-9.93 1.744l-9.616 1.815c-6.328 1.183-12.5 2.34-18.622 3.484-.942.003-1.957.02-3.095.088-.038.145-.098.378-.374.542-.364.065-.732.133-1.102.2-2.52.13-4.963.092-6.704.404-.414.12-.35.335-.223.564-4.195.558-8.438 1.022-12.698 1.44l-6.822-.436-.163.666c-2.797.588-5.13-.568-7.93-.01-.887.244-.287.61-.284 1.015-5.415.313-10.847.553-16.282.74" fill="#FFF" opacity=".062" mask="url(#b)"/>
        </g>
        <path d="M10.46 9.6V39h3.822V24.384h13.02v-1.932h-13.02V11.91h15.162V9.6H10.46zm25.68 0h-3.57V39h3.57V9.6zm25.724 18.942c0 1.456-.252 2.85-.756 4.18-.504 1.33-1.225 2.498-2.163 3.506-.938 1.008-2.072 1.806-3.402 2.394-1.33.588-2.82.882-4.473.882-1.68 0-3.2-.3-4.557-.903-1.358-.6-2.506-1.406-3.444-2.414-.94-1.008-1.667-2.177-2.185-3.507s-.777-2.71-.777-4.138c0-1.456.26-2.85.777-4.18.518-1.33 1.246-2.498 2.184-3.506.937-1.008 2.085-1.813 3.443-2.415 1.358-.6 2.877-.902 4.557-.902 1.652 0 3.143.3 4.473.903s2.464 1.408 3.402 2.416c.938 1.008 1.66 2.177 2.163 3.507.504 1.33.756 2.723.756 4.18zm-3.99 0c0-1.96-.21-3.55-.63-4.767-.42-1.218-.966-2.163-1.638-2.835-.672-.672-1.414-1.127-2.226-1.365s-1.596-.357-2.352-.357c-.756 0-1.54.12-2.352.357-.812.238-1.56.693-2.247 1.365-.687.672-1.247 1.617-1.68 2.835-.435 1.218-.652 2.807-.652 4.767 0 1.932.217 3.507.65 4.725.435 1.218.995 2.163 1.68 2.835.687.672 1.436 1.127 2.248 1.365.812.238 1.596.357 2.352.357.756 0 1.54-.12 2.352-.357.812-.238 1.554-.693 2.226-1.365.672-.672 1.218-1.617 1.638-2.835.42-1.218.63-2.793.63-4.725zM64.99 18v21h3.57V26.316c0-1.148.133-2.12.4-2.92.265-.797.608-1.448 1.028-1.952.42-.504.882-.868 1.386-1.092.504-.224.994-.336 1.47-.336.644 0 1.24.21 1.785.63.545.42.944.812 1.196 1.176l1.428-2.604c-.252-.336-.553-.616-.903-.84-.35-.224-.7-.4-1.05-.525-.35-.126-.67-.21-.965-.252-.294-.04-.51-.062-.65-.062-1.177 0-2.157.322-2.94.966-.785.644-1.43 1.596-1.933 2.856h-.252V18h-3.57zm32.36 11.424H81.39c0 1.708.25 3.108.755 4.2.504 1.092 1.134 1.946 1.89 2.562.756.616 1.575 1.043 2.457 1.28.882.24 1.715.358 2.5.358.7 0 1.336-.077 1.91-.23.574-.155 1.127-.372 1.66-.652.53-.28 1.056-.63 1.574-1.05.518-.42 1.07-.882 1.66-1.386l1.343 1.344c-1.12 1.176-2.437 2.08-3.95 2.71-1.51.63-3.163.944-4.955.944-1.848 0-3.45-.315-4.81-.945-1.357-.63-2.477-1.47-3.36-2.52-.88-1.05-1.54-2.24-1.973-3.57-.434-1.33-.65-2.696-.65-4.096 0-1.68.25-3.185.755-4.515.504-1.33 1.204-2.465 2.1-3.403.896-.938 1.946-1.652 3.15-2.142s2.52-.735 3.948-.735c1.344 0 2.618.224 3.822.672 1.204.448 2.26 1.12 3.17 2.016.91.896 1.632 2.03 2.164 3.402.533 1.372.8 2.996.8 4.872v.882zm-15.96-1.68h12.305c0-2.716-.553-4.85-1.66-6.405-1.105-1.555-2.652-2.332-4.64-2.332-1.036 0-1.932.245-2.688.735-.756.49-1.38 1.14-1.87 1.953-.49.812-.853 1.743-1.09 2.793-.24 1.05-.358 2.134-.358 3.254zM118.03 39V25.392c0-.504-.042-1.197-.126-2.08-.084-.88-.357-1.75-.82-2.603-.46-.855-1.196-1.597-2.204-2.227-1.008-.63-2.436-.945-4.284-.945-.812-.028-1.722.133-2.73.483s-2.002 1.016-2.982 1.996l-.672.672h-.168V18h-3.57v21h3.57V26.022c0-1.092.154-2.03.462-2.814.308-.784.728-1.442 1.26-1.974s1.14-.924 1.827-1.176c.686-.252 1.393-.378 2.12-.378 1.177 0 2.087.23 2.73.693.645.462 1.114 1 1.408 1.617.294.616.47 1.232.525 1.848.056.616.084 1.064.084 1.344V39h3.57zm15.054-1.68c-1.008 0-1.98-.154-2.92-.462-.937-.308-1.77-.805-2.498-1.49-.728-.687-1.31-1.597-1.743-2.73-.434-1.135-.65-2.528-.65-4.18 0-1.708.237-3.157.713-4.347.476-1.19 1.07-2.14 1.785-2.855.714-.714 1.505-1.232 2.373-1.554.868-.32 1.694-.482 2.478-.482 1.288 0 2.408.336 3.36 1.008.952.672 1.582 1.498 1.89 2.478h2.898c-.28-1.008-.728-1.84-1.344-2.5-.616-.657-1.323-1.19-2.12-1.595-.8-.407-1.653-.687-2.563-.84-.91-.155-1.785-.232-2.625-.232-1.764 0-3.318.287-4.662.86-1.344.575-2.478 1.352-3.402 2.332-.924.98-1.617 2.128-2.08 3.444-.46 1.316-.692 2.716-.692 4.2 0 1.568.252 3.03.756 4.39.504 1.357 1.225 2.533 2.163 3.527.938.995 2.065 1.78 3.38 2.353 1.317.574 2.8.86 4.453.86 1.848 0 3.465-.307 4.85-.923 1.387-.616 2.556-1.288 3.508-2.016l-1.218-1.596c-.98.812-1.953 1.407-2.92 1.785-.965.378-2.022.567-3.17.567zm28.62-7.896h-15.96c0 1.708.253 3.108.757 4.2s1.134 1.946 1.89 2.562c.756.616 1.575 1.043 2.457 1.28.882.24 1.715.358 2.5.358.7 0 1.336-.077 1.91-.23.574-.155 1.127-.372 1.66-.652.53-.28 1.056-.63 1.574-1.05.518-.42 1.07-.882 1.66-1.386l1.343 1.344c-1.12 1.176-2.436 2.08-3.948 2.71-1.513.63-3.165.944-4.957.944-1.848 0-3.45-.315-4.81-.945-1.357-.63-2.477-1.47-3.36-2.52-.88-1.05-1.54-2.24-1.973-3.57-.434-1.33-.65-2.696-.65-4.096 0-1.68.25-3.185.755-4.515.504-1.33 1.204-2.465 2.1-3.403.896-.938 1.946-1.652 3.15-2.142s2.52-.735 3.948-.735c1.344 0 2.618.224 3.822.672 1.204.448 2.26 1.12 3.17 2.016.91.896 1.632 2.03 2.164 3.402.53 1.372.797 2.996.797 4.872v.882zm-15.96-1.68h12.307c0-2.716-.553-4.85-1.66-6.405-1.105-1.555-2.652-2.332-4.64-2.332-1.036 0-1.932.245-2.688.735-.756.49-1.38 1.14-1.87 1.953-.49.812-.853 1.743-1.09 2.793-.24 1.05-.358 2.134-.358 3.254zM11.776 62v-5.592h.944v2.424h2.776v-2.424h.944V62h-.944v-2.288H12.72V62h-.944zm10.508-1.272L21.724 62h-1.008l2.464-5.592h1.008L26.652 62h-1.008l-.56-1.272h-2.8zm2.416-.872l-1.016-2.304-1.016 2.304H24.7zm6.228-3.448h.944V62h-.944v-5.592zm10.46 1.816c0 .923-.403 1.504-1.208 1.744L41.644 62h-1.2l-1.336-1.88h-1.24V62h-.944v-5.592h2.08c.853 0 1.464.144 1.832.432.368.288.552.75.552 1.384zm-1.256.792c.192-.165.288-.43.288-.796 0-.365-.1-.616-.296-.752-.197-.136-.55-.204-1.056-.204h-1.2v2h1.176c.533 0 .896-.083 1.088-.248zm12.824-1.704c-.176.112-.264.28-.264.508 0 .227.088.4.264.52.176.12.55.25 1.124.388.573.14 1.005.333 1.296.584.29.25.436.62.436 1.108 0 .488-.184.884-.552 1.188-.368.304-.85.456-1.448.456-.875 0-1.65-.3-2.328-.904l.592-.712c.565.49 1.152.736 1.76.736.304 0 .545-.065.724-.196.18-.13.268-.304.268-.52 0-.216-.084-.384-.252-.504-.168-.12-.457-.23-.868-.328-.41-.1-.723-.19-.936-.272-.213-.083-.403-.19-.568-.324-.33-.25-.496-.635-.496-1.152 0-.517.188-.916.564-1.196.376-.28.84-.42 1.396-.42.357 0 .712.06 1.064.176.352.117.656.283.912.496l-.504.712c-.165-.15-.39-.272-.672-.368-.283-.096-.56-.144-.836-.144-.275 0-.5.056-.676.168zm9.636-.04V62h-.944v-4.728h-1.696v-.864h4.336v.864h-1.696zM71.012 62h-.96v-2.208l-2.08-3.384h1.032l1.528 2.544 1.528-2.544h1.032l-2.08 3.384V62zm6.292 0v-5.592h.944v4.696H80.8V62h-3.496zm8.028-5.592h.944V62h-.944v-5.592zm7.012.904c-.176.112-.264.28-.264.508 0 .227.088.4.264.52.176.12.55.25 1.124.388.573.14 1.005.333 1.296.584.29.25.436.62.436 1.108 0 .488-.184.884-.552 1.188-.368.304-.85.456-1.448.456-.875 0-1.65-.3-2.328-.904l.592-.712c.565.49 1.152.736 1.76.736.304 0 .545-.065.724-.196.18-.13.268-.304.268-.52 0-.216-.084-.384-.252-.504-.168-.12-.457-.23-.868-.328-.41-.1-.723-.19-.936-.272-.213-.083-.403-.19-.568-.324-.33-.25-.496-.635-.496-1.152 0-.517.188-.916.564-1.196.376-.28.84-.42 1.396-.42.357 0 .712.06 1.064.176.352.117.656.283.912.496l-.504.712c-.165-.15-.39-.272-.672-.368-.283-.096-.56-.144-.836-.144-.275 0-.5.056-.676.168zm9.636-.04V62h-.944v-4.728H99.34v-.864h4.336v.864h-1.696zm12.928.04c-.176.112-.264.28-.264.508 0 .227.088.4.264.52.176.12.55.25 1.124.388.573.14 1.005.333 1.296.584.29.25.436.62.436 1.108 0 .488-.184.884-.552 1.188-.368.304-.85.456-1.448.456-.875 0-1.65-.3-2.328-.904l.592-.712c.565.49 1.152.736 1.76.736.304 0 .545-.065.724-.196.18-.13.268-.304.268-.52 0-.216-.084-.384-.252-.504-.168-.12-.457-.23-.868-.328-.41-.1-.723-.19-.936-.272-.213-.083-.403-.19-.568-.324-.33-.25-.496-.635-.496-1.152 0-.517.188-.916.564-1.196.376-.28.84-.42 1.396-.42.357 0 .712.06 1.064.176.352.117.656.283.912.496l-.504.712c-.165-.15-.39-.272-.672-.368-.283-.096-.56-.144-.836-.144-.275 0-.5.056-.676.168zm9.636-.04V62h-.944v-4.728h-1.696v-.864h4.336v.864h-1.696zm8.516 3.896c.437 0 .784-.15 1.04-.448.256-.3.384-.704.384-1.216v-3.096h.944v3.136c0 .805-.22 1.425-.664 1.86-.443.435-1.01.652-1.704.652-.693 0-1.26-.217-1.704-.652-.443-.435-.664-1.055-.664-1.86v-3.136h.944v3.096c0 .512.128.917.384 1.216.256.3.603.448 1.04.448zm11.58-4.028c.54.488.808 1.167.808 2.036 0 .87-.26 1.557-.784 2.064-.523.507-1.323.76-2.4.76h-1.856v-5.592h1.92c1.003 0 1.773.244 2.312.732zm-.144 2.06c0-1.28-.733-1.92-2.2-1.92h-.944v3.832h1.048c.677 0 1.196-.16 1.556-.484.36-.323.54-.8.54-1.428zm5.668-2.792h.944V62h-.944v-5.592zm8.58.728c-.555 0-1.023.197-1.404.592-.38.395-.572.873-.572 1.436s.19 1.04.572 1.436c.38.395.85.592 1.404.592.555 0 1.023-.197 1.404-.592.38-.395.572-.873.572-1.436s-.19-1.04-.572-1.436c-.38-.395-.85-.592-1.404-.592zm0 4.92c-.832 0-1.53-.276-2.096-.828-.565-.552-.848-1.24-.848-2.064 0-.824.283-1.512.848-2.064s1.264-.828 2.096-.828c.832 0 1.53.276 2.096.828.565.552.848 1.24.848 2.064 0 .824-.283 1.512-.848 2.064s-1.264.828-2.096.828z" fill="#FFF"/>
    </g>
</svg>
